<mxfile host="Electron" modified="2024-08-24T03:19:36.716Z" agent="Mozilla/5.0 (Windows NT 10.0; Win64; x64) AppleWebKit/537.36 (KHTML, like Gecko) draw.io/24.4.8 Chrome/124.0.6367.207 Electron/30.0.6 Safari/537.36" etag="fBJIXWegg4ccvUW7lea2" version="24.4.8" type="device">
  <diagram name="第 1 页" id="riG79sPCriaqfj3P-lMo">
    <mxGraphModel dx="1313" dy="786" grid="1" gridSize="10" guides="1" tooltips="1" connect="1" arrows="1" fold="1" page="1" pageScale="1" pageWidth="1654" pageHeight="2336" math="1" shadow="0">
      <root>
        <mxCell id="0" />
        <mxCell id="1" parent="0" />
        <mxCell id="PE49BGlP1UdS4jRzdQMs-1" value="\(L_+\)" style="text;html=1;align=center;verticalAlign=middle;whiteSpace=wrap;rounded=0;" vertex="1" parent="1">
          <mxGeometry x="10" y="260" width="40" height="30" as="geometry" />
        </mxCell>
        <mxCell id="PE49BGlP1UdS4jRzdQMs-32" style="edgeStyle=orthogonalEdgeStyle;rounded=0;orthogonalLoop=1;jettySize=auto;html=1;" edge="1" parent="1" source="PE49BGlP1UdS4jRzdQMs-2">
          <mxGeometry relative="1" as="geometry">
            <mxPoint x="180" y="365" as="targetPoint" />
          </mxGeometry>
        </mxCell>
        <mxCell id="PE49BGlP1UdS4jRzdQMs-2" value="\(L_-\)" style="text;html=1;align=center;verticalAlign=middle;whiteSpace=wrap;rounded=0;" vertex="1" parent="1">
          <mxGeometry x="10" y="350" width="40" height="30" as="geometry" />
        </mxCell>
        <mxCell id="PE49BGlP1UdS4jRzdQMs-8" value="" style="group" vertex="1" connectable="0" parent="1">
          <mxGeometry x="80" y="250" width="100" height="30" as="geometry" />
        </mxCell>
        <mxCell id="PE49BGlP1UdS4jRzdQMs-3" style="edgeStyle=orthogonalEdgeStyle;rounded=0;orthogonalLoop=1;jettySize=auto;html=1;" edge="1" parent="PE49BGlP1UdS4jRzdQMs-8" source="PE49BGlP1UdS4jRzdQMs-1">
          <mxGeometry relative="1" as="geometry">
            <mxPoint x="100" y="25" as="targetPoint" />
          </mxGeometry>
        </mxCell>
        <mxCell id="PE49BGlP1UdS4jRzdQMs-5" value="\(\min tr(U_+^TL_+U_+)\)" style="text;html=1;align=center;verticalAlign=middle;whiteSpace=wrap;rounded=0;" vertex="1" parent="PE49BGlP1UdS4jRzdQMs-8">
          <mxGeometry width="60" height="30" as="geometry" />
        </mxCell>
        <mxCell id="PE49BGlP1UdS4jRzdQMs-24" value="" style="group" vertex="1" connectable="0" parent="1">
          <mxGeometry x="80" y="340" width="100" height="30" as="geometry" />
        </mxCell>
        <mxCell id="PE49BGlP1UdS4jRzdQMs-25" style="edgeStyle=orthogonalEdgeStyle;rounded=0;orthogonalLoop=1;jettySize=auto;html=1;" edge="1" parent="PE49BGlP1UdS4jRzdQMs-24">
          <mxGeometry relative="1" as="geometry">
            <mxPoint x="100" y="25" as="targetPoint" />
          </mxGeometry>
        </mxCell>
        <mxCell id="PE49BGlP1UdS4jRzdQMs-26" value="\(\min tr(U_-^TL_-U_-)\)" style="text;html=1;align=center;verticalAlign=middle;whiteSpace=wrap;rounded=0;" vertex="1" parent="PE49BGlP1UdS4jRzdQMs-24">
          <mxGeometry width="60" height="30" as="geometry" />
        </mxCell>
        <mxCell id="PE49BGlP1UdS4jRzdQMs-33" value="\(U_+^{(0)}\)" style="text;html=1;align=center;verticalAlign=middle;whiteSpace=wrap;rounded=0;" vertex="1" parent="1">
          <mxGeometry x="180" y="260" width="50" height="30" as="geometry" />
        </mxCell>
        <mxCell id="PE49BGlP1UdS4jRzdQMs-60" style="rounded=0;orthogonalLoop=1;jettySize=auto;html=1;entryX=0.5;entryY=1;entryDx=0;entryDy=0;fontColor=#FF3333;opacity=60;strokeWidth=1;shape=flexArrow;fillColor=#d5e8d4;strokeColor=none;gradientColor=none;shadow=0;flowAnimation=0;" edge="1" parent="1" source="PE49BGlP1UdS4jRzdQMs-34" target="PE49BGlP1UdS4jRzdQMs-58">
          <mxGeometry relative="1" as="geometry" />
        </mxCell>
        <mxCell id="PE49BGlP1UdS4jRzdQMs-70" style="edgeStyle=orthogonalEdgeStyle;rounded=0;orthogonalLoop=1;jettySize=auto;html=1;dashed=1;fillColor=#f8cecc;strokeColor=#b85450;" edge="1" parent="1" source="PE49BGlP1UdS4jRzdQMs-34">
          <mxGeometry relative="1" as="geometry">
            <mxPoint x="580" y="365" as="targetPoint" />
          </mxGeometry>
        </mxCell>
        <mxCell id="PE49BGlP1UdS4jRzdQMs-34" value="\(U_-^{(0)}\)" style="text;html=1;align=center;verticalAlign=middle;whiteSpace=wrap;rounded=0;" vertex="1" parent="1">
          <mxGeometry x="180" y="350" width="50" height="30" as="geometry" />
        </mxCell>
        <mxCell id="PE49BGlP1UdS4jRzdQMs-75" style="rounded=0;orthogonalLoop=1;jettySize=auto;html=1;entryX=0.5;entryY=0;entryDx=0;entryDy=0;exitX=0.5;exitY=1;exitDx=0;exitDy=0;shadow=0;opacity=60;strokeWidth=1;align=center;verticalAlign=middle;fontFamily=Helvetica;fontSize=11;fontColor=#FF3333;labelBackgroundColor=default;endArrow=classic;flowAnimation=0;fillColor=#f8cecc;shape=flexArrow;strokeColor=none;" edge="1" parent="1" source="PE49BGlP1UdS4jRzdQMs-58" target="PE49BGlP1UdS4jRzdQMs-74">
          <mxGeometry relative="1" as="geometry">
            <Array as="points">
              <mxPoint x="500" y="320" />
            </Array>
          </mxGeometry>
        </mxCell>
        <mxCell id="PE49BGlP1UdS4jRzdQMs-58" value="&lt;font color=&quot;#00994d&quot;&gt;\(U_+^{(1)}\)&lt;/font&gt;" style="text;html=1;align=center;verticalAlign=middle;whiteSpace=wrap;rounded=0;" vertex="1" parent="1">
          <mxGeometry x="370" y="260" width="50" height="30" as="geometry" />
        </mxCell>
        <mxCell id="PE49BGlP1UdS4jRzdQMs-61" value="" style="group;fontColor=#67AB9F;" vertex="1" connectable="0" parent="1">
          <mxGeometry x="264" y="310" width="100" height="30" as="geometry" />
        </mxCell>
        <mxCell id="PE49BGlP1UdS4jRzdQMs-62" style="edgeStyle=orthogonalEdgeStyle;rounded=0;orthogonalLoop=1;jettySize=auto;html=1;" edge="1" parent="PE49BGlP1UdS4jRzdQMs-61">
          <mxGeometry relative="1" as="geometry">
            <mxPoint x="100" y="25" as="targetPoint" />
          </mxGeometry>
        </mxCell>
        <mxCell id="PE49BGlP1UdS4jRzdQMs-66" style="edgeStyle=orthogonalEdgeStyle;rounded=0;orthogonalLoop=1;jettySize=auto;html=1;exitX=0.75;exitY=0;exitDx=0;exitDy=0;" edge="1" parent="PE49BGlP1UdS4jRzdQMs-61" source="PE49BGlP1UdS4jRzdQMs-63">
          <mxGeometry relative="1" as="geometry">
            <mxPoint x="45" y="-10" as="targetPoint" />
          </mxGeometry>
        </mxCell>
        <mxCell id="PE49BGlP1UdS4jRzdQMs-63" value="&lt;font color=&quot;#00994d&quot;&gt;\(\min tr(U_+^TL_+U_+)+D(U_+,U_-^{(0)})\)&lt;/font&gt;" style="text;html=1;align=center;verticalAlign=middle;whiteSpace=wrap;rounded=0;" vertex="1" parent="PE49BGlP1UdS4jRzdQMs-61">
          <mxGeometry width="60" height="30" as="geometry" />
        </mxCell>
        <mxCell id="PE49BGlP1UdS4jRzdQMs-35" style="edgeStyle=orthogonalEdgeStyle;rounded=0;orthogonalLoop=1;jettySize=auto;html=1;dashed=1;fillColor=#d5e8d4;strokeColor=#82b366;" edge="1" parent="1" source="PE49BGlP1UdS4jRzdQMs-33">
          <mxGeometry relative="1" as="geometry">
            <mxPoint x="370" y="275" as="targetPoint" />
          </mxGeometry>
        </mxCell>
        <mxCell id="PE49BGlP1UdS4jRzdQMs-36" value="&lt;font color=&quot;#00994d&quot;&gt;&lt;b&gt;initial guess&lt;/b&gt;&lt;/font&gt;" style="text;html=1;align=center;verticalAlign=middle;whiteSpace=wrap;rounded=0;" vertex="1" parent="1">
          <mxGeometry x="260" y="250" width="90" height="30" as="geometry" />
        </mxCell>
        <mxCell id="PE49BGlP1UdS4jRzdQMs-71" value="&lt;b style=&quot;&quot;&gt;&lt;font color=&quot;#990000&quot;&gt;initial guess&lt;/font&gt;&lt;/b&gt;" style="text;html=1;align=center;verticalAlign=middle;whiteSpace=wrap;rounded=0;" vertex="1" parent="1">
          <mxGeometry x="350" y="360" width="90" height="30" as="geometry" />
        </mxCell>
        <mxCell id="PE49BGlP1UdS4jRzdQMs-93" style="edgeStyle=orthogonalEdgeStyle;rounded=0;orthogonalLoop=1;jettySize=auto;html=1;" edge="1" parent="1" source="PE49BGlP1UdS4jRzdQMs-97">
          <mxGeometry relative="1" as="geometry">
            <mxPoint x="1000" y="365" as="targetPoint" />
          </mxGeometry>
        </mxCell>
        <mxCell id="PE49BGlP1UdS4jRzdQMs-74" value="&lt;font color=&quot;#990000&quot;&gt;\(U_-^{(1)}\)&lt;/font&gt;" style="text;html=1;align=center;verticalAlign=middle;whiteSpace=wrap;rounded=0;" vertex="1" parent="1">
          <mxGeometry x="580" y="350" width="50" height="30" as="geometry" />
        </mxCell>
        <mxCell id="PE49BGlP1UdS4jRzdQMs-76" value="&lt;font color=&quot;#990000&quot;&gt;\(\min tr(U_-^TL_-U_-)+D(U_-,U_+^{(1)})\)&lt;/font&gt;" style="text;html=1;align=center;verticalAlign=middle;whiteSpace=wrap;rounded=0;" vertex="1" parent="1">
          <mxGeometry x="470" y="310" width="60" height="30" as="geometry" />
        </mxCell>
        <mxCell id="PE49BGlP1UdS4jRzdQMs-94" style="edgeStyle=orthogonalEdgeStyle;rounded=0;orthogonalLoop=1;jettySize=auto;html=1;" edge="1" parent="1" source="PE49BGlP1UdS4jRzdQMs-95">
          <mxGeometry relative="1" as="geometry">
            <mxPoint x="1000" y="275" as="targetPoint" />
          </mxGeometry>
        </mxCell>
        <mxCell id="PE49BGlP1UdS4jRzdQMs-77" value="&lt;font color=&quot;#000099&quot;&gt;\(U_+^{(2)}\)&lt;/font&gt;" style="text;html=1;align=center;verticalAlign=middle;whiteSpace=wrap;rounded=0;" vertex="1" parent="1">
          <mxGeometry x="770" y="260" width="50" height="30" as="geometry" />
        </mxCell>
        <mxCell id="PE49BGlP1UdS4jRzdQMs-78" value="" style="group;fontColor=#67AB9F;" vertex="1" connectable="0" parent="1">
          <mxGeometry x="700" y="310" width="100" height="30" as="geometry" />
        </mxCell>
        <mxCell id="PE49BGlP1UdS4jRzdQMs-79" style="edgeStyle=orthogonalEdgeStyle;rounded=0;orthogonalLoop=1;jettySize=auto;html=1;" edge="1" parent="PE49BGlP1UdS4jRzdQMs-78">
          <mxGeometry relative="1" as="geometry">
            <mxPoint x="100" y="25" as="targetPoint" />
          </mxGeometry>
        </mxCell>
        <mxCell id="PE49BGlP1UdS4jRzdQMs-80" style="edgeStyle=orthogonalEdgeStyle;rounded=0;orthogonalLoop=1;jettySize=auto;html=1;exitX=0.75;exitY=0;exitDx=0;exitDy=0;" edge="1" parent="PE49BGlP1UdS4jRzdQMs-78" source="PE49BGlP1UdS4jRzdQMs-81">
          <mxGeometry relative="1" as="geometry">
            <mxPoint x="45" y="-10" as="targetPoint" />
          </mxGeometry>
        </mxCell>
        <mxCell id="PE49BGlP1UdS4jRzdQMs-82" style="edgeStyle=orthogonalEdgeStyle;rounded=0;orthogonalLoop=1;jettySize=auto;html=1;dashed=1;fillColor=#dae8fc;strokeColor=#6c8ebf;exitX=1;exitY=0.5;exitDx=0;exitDy=0;entryX=0;entryY=0.5;entryDx=0;entryDy=0;" edge="1" parent="1" source="PE49BGlP1UdS4jRzdQMs-58" target="PE49BGlP1UdS4jRzdQMs-77">
          <mxGeometry relative="1" as="geometry">
            <mxPoint x="800" y="275" as="targetPoint" />
            <mxPoint x="660" y="275" as="sourcePoint" />
          </mxGeometry>
        </mxCell>
        <mxCell id="PE49BGlP1UdS4jRzdQMs-83" value="&lt;b style=&quot;&quot;&gt;&lt;font color=&quot;#000099&quot;&gt;initial guess&lt;/font&gt;&lt;/b&gt;" style="text;html=1;align=center;verticalAlign=middle;whiteSpace=wrap;rounded=0;" vertex="1" parent="1">
          <mxGeometry x="570" y="250" width="90" height="30" as="geometry" />
        </mxCell>
        <mxCell id="PE49BGlP1UdS4jRzdQMs-84" style="rounded=0;orthogonalLoop=1;jettySize=auto;html=1;entryX=0.5;entryY=1;entryDx=0;entryDy=0;fontColor=#FF3333;opacity=60;strokeWidth=1;shape=flexArrow;fillColor=#dae8fc;strokeColor=none;shadow=0;flowAnimation=0;exitX=1;exitY=0;exitDx=0;exitDy=0;" edge="1" parent="1" source="PE49BGlP1UdS4jRzdQMs-74" target="PE49BGlP1UdS4jRzdQMs-77">
          <mxGeometry relative="1" as="geometry">
            <mxPoint x="635" y="357.5" as="sourcePoint" />
            <mxPoint x="800" y="292.5" as="targetPoint" />
          </mxGeometry>
        </mxCell>
        <mxCell id="PE49BGlP1UdS4jRzdQMs-81" value="&lt;font color=&quot;#000099&quot;&gt;\(\min tr(U_+^TL_+U_+)+D(U_+,U_-^{(1)})\)&lt;/font&gt;" style="text;html=1;align=center;verticalAlign=middle;whiteSpace=wrap;rounded=0;" vertex="1" parent="1">
          <mxGeometry x="700" y="310" width="60" height="30" as="geometry" />
        </mxCell>
        <mxCell id="PE49BGlP1UdS4jRzdQMs-96" value="" style="edgeStyle=orthogonalEdgeStyle;rounded=0;orthogonalLoop=1;jettySize=auto;html=1;" edge="1" parent="1" source="PE49BGlP1UdS4jRzdQMs-77" target="PE49BGlP1UdS4jRzdQMs-95">
          <mxGeometry relative="1" as="geometry">
            <mxPoint x="1000" y="275" as="targetPoint" />
            <mxPoint x="820" y="275" as="sourcePoint" />
          </mxGeometry>
        </mxCell>
        <mxCell id="PE49BGlP1UdS4jRzdQMs-95" value="\(\cdots\)" style="text;html=1;align=center;verticalAlign=middle;resizable=0;points=[];autosize=1;strokeColor=none;fillColor=none;" vertex="1" parent="1">
          <mxGeometry x="875" y="260" width="70" height="30" as="geometry" />
        </mxCell>
        <mxCell id="PE49BGlP1UdS4jRzdQMs-98" value="" style="edgeStyle=orthogonalEdgeStyle;rounded=0;orthogonalLoop=1;jettySize=auto;html=1;" edge="1" parent="1" source="PE49BGlP1UdS4jRzdQMs-74" target="PE49BGlP1UdS4jRzdQMs-97">
          <mxGeometry relative="1" as="geometry">
            <mxPoint x="1000" y="365" as="targetPoint" />
            <mxPoint x="630" y="365" as="sourcePoint" />
          </mxGeometry>
        </mxCell>
        <mxCell id="PE49BGlP1UdS4jRzdQMs-97" value="\(\cdots\)" style="text;html=1;align=center;verticalAlign=middle;resizable=0;points=[];autosize=1;strokeColor=none;fillColor=none;" vertex="1" parent="1">
          <mxGeometry x="875" y="350" width="70" height="30" as="geometry" />
        </mxCell>
        <mxCell id="PE49BGlP1UdS4jRzdQMs-99" value="iterate until \(D(U_+,U_-)\) converges" style="text;html=1;align=center;verticalAlign=middle;resizable=0;points=[];autosize=1;strokeColor=none;fillColor=none;" vertex="1" parent="1">
          <mxGeometry x="740" y="370" width="220" height="30" as="geometry" />
        </mxCell>
        <mxCell id="PE49BGlP1UdS4jRzdQMs-102" style="edgeStyle=orthogonalEdgeStyle;rounded=0;orthogonalLoop=1;jettySize=auto;html=1;" edge="1" parent="1" source="PE49BGlP1UdS4jRzdQMs-100">
          <mxGeometry relative="1" as="geometry">
            <mxPoint x="1190" y="275" as="targetPoint" />
          </mxGeometry>
        </mxCell>
        <mxCell id="PE49BGlP1UdS4jRzdQMs-100" value="\(U_+^{(n)}\)" style="text;html=1;align=center;verticalAlign=middle;whiteSpace=wrap;rounded=0;" vertex="1" parent="1">
          <mxGeometry x="1000" y="260" width="50" height="30" as="geometry" />
        </mxCell>
        <mxCell id="PE49BGlP1UdS4jRzdQMs-101" value="\(U_-^{(n)}\)" style="text;html=1;align=center;verticalAlign=middle;whiteSpace=wrap;rounded=0;" vertex="1" parent="1">
          <mxGeometry x="1000" y="350" width="50" height="30" as="geometry" />
        </mxCell>
        <mxCell id="PE49BGlP1UdS4jRzdQMs-103" value="&lt;b&gt;k-means cluster&lt;/b&gt;" style="text;html=1;align=center;verticalAlign=middle;resizable=0;points=[];autosize=1;strokeColor=none;fillColor=none;" vertex="1" parent="1">
          <mxGeometry x="1060" y="250" width="110" height="30" as="geometry" />
        </mxCell>
        <mxCell id="PE49BGlP1UdS4jRzdQMs-104" value="Cluster Result" style="text;html=1;align=center;verticalAlign=middle;resizable=0;points=[];autosize=1;strokeColor=none;fillColor=none;" vertex="1" parent="1">
          <mxGeometry x="1190" y="260" width="100" height="30" as="geometry" />
        </mxCell>
      </root>
    </mxGraphModel>
  </diagram>
</mxfile>
